<svg version="1" xmlns="http://www.w3.org/2000/svg" width="2000" height="2000" viewBox="0 0 1500.000000 1500.000000"><path d="M456.8 171.5c-.2.2-4.4.7-9.3 1-5 .3-10.1.8-11.5 1-1.4.2-5 .7-8 1-52.2 6.2-111.5 28.8-152.9 58.2-27.8 19.9-59.2 51.2-78.1 77.9-29.5 41.7-47.9 76.9-66.9 127.7-17.5 46.8-28.1 82.3-41.6 138.7-1.1 4.3-8.6 42-9.1 45-.3 1.9-.9 5.7-1.4 8.5-.5 2.7-1.2 7.2-1.5 9.8-.4 2.7-.8 5.8-1 6.9-.3 1.1-.7 4.6-1.1 7.7-.3 3.1-.7 6.3-.9 7.1-.1.8-.6 4.4-1 8-.3 3.6-.8 7.6-1 9-.2 1.4-.7 6.5-1 11.5-.4 4.9-.8 10.1-1 11.5-2.5 16.4-2.4 97.6 0 118.5.2 1.6.7 7 1.1 12 .3 4.9.7 10.3.9 12 1.1 13.8 1.8 20.2 2 21.6.2.9.6 4 1 7 .3 3 .8 6.6 1 8 .3 1.4.7 4.1.9 6 1.3 10 6.8 39.3 8.7 46.4.6 2.2 1.3 4.8 1.5 5.7 9.7 43.2 25.7 87.5 45.9 127.8 7.3 14.4 10.8 20.8 20.1 36.8 4.2 7.3 20.3 31.2 27.4 40.7 54.5 72.7 113.4 117.1 199 150.2 47.5 18.3 87.8 28.2 130.5 32 10.2.9 41.4.9 52.5 0 57.9-4.6 115.5-32.4 153.5-74.1 4.4-4.9 8.6-9.8 9.4-11 .9-1.1 2.4-3 3.4-4.1 2.7-2.9 18.9-27.5 23.8-36.2 10.9-19.1 21.6-42.7 28.9-63.8 9.8-28.6 22.1-80.3 25.5-108 .4-2.8.8-6.1 1-7.5.2-1.4.7-5.2 1-8.5.4-3.3.8-7.1 1-8.5.2-1.4.6-5.4 1-9 .3-3.6.8-8.3 1.1-10.5.2-2.2.7-6.9.9-10.5.3-3.6.7-8.3 1-10.5.2-2.2.7-8.1 1-13 .4-5 .9-10.6 1-12.5 1.7-17.2 2.3-36.5 1.3-42.3-1.8-11.5-13.5-26.3-24.9-31.7-3.5-1.6-6.9-3-7.5-3-.6 0-5.5-1.4-10.9-3-5.4-1.7-10.7-3.2-11.9-3.5-1.2-.2-5.5-1.3-9.6-2.4-4.1-1.1-8.6-2.2-10-2.5-1.4-.3-7.7-1.6-14.1-3-12.1-2.5-25.9-5-34.4-6.2-2.7-.3-5.8-.8-6.7-.9-.9-.2-4.8-.7-8.5-1-3.7-.4-7.6-.9-8.5-1-1.6-.3-12.4-1.3-23.3-2-2.8-.2-10.8-.6-18-1-7.1-.3-17.2-.8-22.3-1-24.2-1.2-53.7-1.8-86.2-1.9-34.5 0-35.7.1-41.2 2.2-8 3.2-14.7 8.9-19.1 16.3-5.8 9.8-7.2 15.6-7.1 28.9 0 11.5 0 11.6 4.3 20.4 4.6 9.6 10.3 16.2 17 19.5 7.6 3.9 14.4 4.8 39.6 4.9 43.8.3 103 2.1 119.8 3.6 2.9.3 8.4.8 12.2 1.1 3.9.3 8.1.8 9.5 1 1.4.2 5 .6 8 .9 3 .4 6.6.8 8 1.1 1.4.3 4.8.7 7.5 1.1 2.8.3 10.9 1.6 18 2.9 7.2 1.3 14.1 2.6 15.5 2.9 1.4.2 4.6.9 7.2 1.6l4.7 1.2-.4 5.7c-1.1 14.6-2.4 29.9-3 34.6-.2 1.6-.7 5.7-1 9-.3 3.3-1 8.5-1.5 11.5s-1.2 8-1.5 11c-.3 3-.8 6.2-1 7-.2.8-.7 3.5-1 6-1 7.2-5.4 30.9-7.1 38-.9 3.6-1.7 7.3-1.9 8.3-1 4.4-6.7 23.8-8.5 28.7-1.2 3-2.3 6.2-2.5 7-.8 3.5-8.1 20.4-13.5 31.5-13.7 27.9-26.3 45.3-45.1 61.8-12.8 11.3-36.6 24.9-42.2 24.1-1-.1-6.8 1.5-13 3.6-9 3-12.7 3.8-18.7 3.8-4.1 0-10.5.4-14.1.9-9.2 1.3-32.2.5-38.9-1.2-.8-.2-3.7-.6-6.5-1-2.7-.3-7.7-1.1-11-1.7-3.3-.6-6.9-1.2-8.1-1.3-3.9-.5-16.9-3.7-31.3-7.7-60.1-16.6-109.7-43.1-154.1-82.2-7.4-6.6-32.5-32.1-35.6-36.2-1.6-2.2-3.1-4.1-3.5-4.4-1.9-1.7-14.1-18.8-21.2-29.6-19.4-29.8-33.1-59-47-100.4-7.9-23.3-16.1-55-20.1-77-.3-1.4-.9-5-1.5-8s-1.3-7.1-1.6-9c-.3-1.9-1-6-1.5-9s-1.2-8-1.5-11c-.4-3-.8-6.6-1-8-.2-1.4-.7-5.7-1-9.5-.4-3.9-.8-8.5-1-10.3-2.6-22.3-2.6-86.1-.1-117.7.8-9.4 1.7-19 2.1-22.5.3-1.9.9-7.6 1.5-12.5.6-5 1.5-11.5 2-14.5s1.2-7.2 1.6-9.4c.3-2.1.7-4.6.9-5.5.1-.9.6-3.6 1-6.1.4-2.5.9-5.4 1.1-6.5.2-1.1.6-3.4.9-5 .5-2.7 1.1-5.8 3-16 .3-1.7.8-4.4 1.1-6 4.8-26.8 21.5-88.9 31.4-117 7-19.8 8.2-22.8 15.7-40 10.6-24 21-43.7 35.8-67.9 16.5-26.9 47.2-59.3 70.9-75 22.7-14.9 31.8-19.8 47.1-25.3 11.2-4 37.9-11.1 44-11.8 2.2-.2 6.5-1 9.5-1.8 19.3-5.2 87.8-5.3 114.9-.2.9.1 3.6.6 6.1.9 2.5.3 5.5.8 6.6 1 1.2.2 3.7.7 5.5 1 1.9.3 7.9 1.5 13.4 2.7 5.5 1.1 11.1 2.3 12.5 2.5 1.3.3 6 1.4 10.5 2.4s9.2 2.1 10.5 2.4c12.2 2.2 55.1 13.7 83.5 22.3 29 8.7 42.2 5.8 56.2-12.2 16.7-21.7 10.3-57.5-12.4-68.8-6.4-3.2-24.6-9-54.3-17.2-6.6-1.9-50-12.8-55.5-14-3.8-.9-7.9-1.8-9-2-7.6-1.7-16.4-3.7-18.5-4-1.4-.3-3.6-.8-5-1.1-1.4-.4-3.8-.8-5.5-1-1.6-.2-3.8-.7-4.7-1-1-.3-3-.7-4.5-1-4.3-.6-8.6-1.4-10.8-1.8-1.1-.2-4.2-.7-7-1-7.2-1-10.5-1.5-14.7-2-2.1-.3-6.8-.8-10.5-1.1-3.7-.3-8.4-.8-10.3-1.1-3.9-.7-70.6-1.5-71.2-.9zM961.9 235.9l-2.4 1.9-.1 57.9c-.2 63.8-.7 84.2-2.9 111.3-1.9 23.5-1.9 24 .3 26 2.5 2.4 5.7 3 9.2 1.9 2.4-.7 11.8-1.1 59-2.5 20.5-.6 23.2-1.2 24.5-5.5 1.1-3.3-.4-8.8-2.7-10-2.5-1.3-14.4-1.5-35.8-.5-24.3 1.2-39.5 1.2-39.3.1 0-.6.4-5.7.8-11.5s.8-12.1 1-14c1.1-10.8 1.8-47.1 1.9-96.8l.1-56.4-2.4-1.9c-3-2.4-8.2-2.4-11.2 0zM978.3 514.9c-4.5.8-6.4 2.1-13.2 9.1-5.7 5.9-9.3 11.2-14 20.7-3.8 7.4-8.4 20-9.4 25.3-.3 1.4-.8 3.6-1.1 5-2.6 11-3.8 39-2.2 54.5 1 10.5 1.3 12.2 3.5 22.5 6.7 30.5 16.5 47.3 31.7 54.5 7.8 3.7 18.5 3.8 29.3.4 12.1-3.8 22-10.4 33.3-22.2 13.8-14.4 22.7-31.4 26.4-50.2.2-1.1.7-3.1 1-4.5 1-4.1 1.3-30.1.3-36-.5-3-1.1-7.3-1.5-9.5-.8-5.8-5.8-20.4-9.5-27.7-12.8-25.6-35.6-41.3-61.4-42.3-4.9-.2-10.9 0-13.2.4zm27.7 18.7c8.3 3.4 13.4 6.6 18.8 11.8 10.7 10.1 19.3 27.9 22.5 46.7 1.4 7.7 1.6 27.9.4 34.9-3.4 20.2-11.2 35-25.7 49-12.4 12-22.6 17.2-33.7 17.3-11.6.1-18.7-7.3-25.4-26.3-2.6-7.1-5.6-18.4-6.3-23.5-.4-2.3-.8-5.1-1.1-6.5-1.6-8.2-2.2-35.6-1-45 .3-2.5.8-6.3 1.1-8.5.9-6.8 5.4-21.6 8.9-29.2 3.8-8.3 7.6-14 13.4-20.2l4.1-4.4 8.7.6c6.1.4 10.8 1.4 15.3 3.3zM992.8 773.5c-.2.2-3.7.5-7.8.9-9.5.8-12.2 1.2-24.8 4.2-13.4 3.1-15.9 4.5-16.8 9-.6 3.3.1 31.1 1.1 39.9.2 2.2.7 6.9 1 10.5.4 3.6.8 7.8 1 9.5.2 1.6.7 5.7 1 9 .3 3.3 1.5 12.7 2.5 21 1.1 8.2 2.2 17.7 2.5 21 .4 3.3.8 6.7 1 7.5.2.8.7 4.9 1 9 .4 4.1.8 9.5 1 12 1 10.4 1.7 25.3 1.8 36.1.2 9.7.5 12 2 13.7 3.8 4.2 11.7 2.8 13.3-2.4 1.4-4.3.7-35.3-1-49.4-.2-1.4-.7-5.9-1.1-10-.4-4.1-.9-8.2-1-9-.3-1.6-1.6-13.4-2-18.5-.2-1.7-.6-4.8-.9-7l-.6-4 8.1.1c4.5.1 11-.4 14.5-1.1 3.5-.6 6.7-.9 7.1-.6 1.4 1 6.7 8.3 9.5 13 4.3 7.4 8.6 16.7 14.3 31.1 2.9 7.4 8.3 21.1 12 30.5 7.9 19.8 13.3 30.4 16.7 32.4 3 1.7 7 .9 9.7-2 2.7-2.9 3.1-5.3 1.4-8.6-5.5-10.1-9.8-19.6-14.8-32.3-3.1-8-7.7-19.7-10.2-26-6.3-15.9-12.4-28.3-18.2-37.3l-5-7.6 4.7-2.9c6.6-4.2 13.1-10.6 18.5-18.4 2.6-3.8 4.7-7 4.7-7.3 0-.3.9-2.4 1.9-4.8 5.4-11.7 7.7-26.4 5.5-35.4-1.7-6.9-8.4-15.7-14.4-18.8-4.3-2.2-14.6-5.3-20.2-6-5.5-.7-18.6-1.4-19-1zm16.3 16.9c21 2.8 26.3 11.9 19 32.9-4.9 13.9-13.9 24.8-25.8 30.9-8.7 4.5-14.7 6-25.7 6.3-12.4.3-12.4.3-13.1-6.4-.4-3.1-.9-6.7-1.1-8.1-.2-1.4-.6-5.9-1-10-.3-4.1-.7-9.1-.9-11-.2-1.9-.7-9.4-1-16.6l-.6-13.1 5.3-1.1c2.9-.6 6.7-1.4 8.3-1.7 1.7-.2 4-.7 5.2-.9 1.2-.3 5.3-.8 9-1.1 3.7-.4 6.9-.8 7-.9.4-.3 11.3.2 15.4.8zM1266.3 1042.8c-2.6 2-3.3 4.6-6.8 26.7-.9 5.5-1.8 11.1-2 12.5-.4 2.7-3.4 25.5-4 30.5-2.5 22.5-2.8 30-2.8 62.5 0 17.9-.2 34.7-.6 37.5l-.6 5-6.1-8.1c-11.7-15.5-27.8-42.3-37.3-61.9-11.1-22.9-19.4-47.6-23.5-70.5-1-5.4-2-7.9-3.6-9.2-3.1-2.5-6.9-2.2-10.5.6l-3 2.4.1 82.6.1 82.6 2.3 2.5c2.9 3.1 7.8 3.3 11.1.6l2.4-1.9-.2-52.7-.1-52.7 5.7 12.8c11.9 26.8 30.4 58 46 77.6 2.5 3.2 7.1 9.9 10.2 15 6.1 10.1 8.5 11.7 13.6 9.1 1.5-.8 3.1-2 3.5-2.6 1.3-2 2.9-8.6 4.4-17.7.3-1.9.7-4.6 1-6 .7-4 1.5-31.1 1.9-62.5.2-16 .5-30.8.8-33.1.3-2.3.8-7 1.2-10.5.3-3.5.8-7.6 1.1-9 .2-1.4.6-4.3.9-6.4.9-7.1 1.6-12 2-14.5.3-1.4.7-4 1-5.8 1.1-7.1 1.6-10 3-17.6 2.1-11.1 2-15.1-.7-17.6-2.7-2.5-7.5-2.6-10.5-.2zM1416.5 1045c-4.1 1.6-4.7 3.5-4.7 15.2-.1 13.3 1.2 74.7 1.7 86.3.8 15.8 1.5 47.4 1.6 69.8.1 21.8.2 22.9 2.2 25.3 3 3.4 7.8 3.7 11.4.9l2.8-2.3-.1-23.9c-.1-21.9-1-56.9-1.9-80.3-.2-5.2-.7-26.4-1-47-.3-20.6-.8-38.5-1-39.7-.8-3.5-6.8-5.9-11-4.3zM993.1 1050.1l-2.3 2.2.6 39.6c.4 21.8.8 43.4 1 48.1.7 14.2 1.8 60.3 2.1 82 .3 24.7.1 22.2 2.6 23.8 5 3.2 11 1.9 12.8-2.6 1-2.6.8-43.9-.4-77.7-1.5-45.8-2.3-76.5-2.4-103.1-.1-11.9-.9-13.4-7.2-14.1-3.6-.4-4.8-.1-6.8 1.8z"/></svg>